<?xml version="1.0" ?><svg xmlns="http://www.w3.org/2000/svg" xmlns:xlink="http://www.w3.org/1999/xlink" version="1.1" viewBox="0 0 512 512" style="enable-background:new 0 0 512 512;" xml:space="preserve"><g id="_x33_0_x2C__Fridge_x2C__Food_and_Restaurant_x2C__Furniture_and_Household_x2C__Freeze_x2C__Cooler"><g><path style="fill:#3A5085;" d="M411,459.977v12.943c0,15.51-12.57,28.08-28.08,28.08c-12.88,0-24.11-8.77-27.24-21.27L351,461    l27.167-10.333L411,459.977z"/><path style="fill:#3A5085;" d="M161,461l-4.68,18.73c-3.13,12.5-14.36,21.27-27.24,21.27c-15.51,0-28.08-12.57-28.08-28.08v-13.17    l30-8.917L161,461z"/><path style="fill:#546C94;" d="M399.3,11H112.7C75.86,11,46,40.86,46,77.7v316.6c0,36.84,29.86,66.7,66.7,66.7    c11.313,0,275.302,0,286.6,0c36.84,0,66.7-29.86,66.7-66.7V77.7C466,40.86,436.14,11,399.3,11z"/><path style="fill:#E3EFFC;" d="M396,51H136c-16.57,0-30,13.43-30,30v155l166.667,20L426,236V81C426,64.43,412.57,51,396,51z"/><path style="fill:#C9DAFC;" d="M106,236v155c0,16.57,13.43,30,30,30h49.996L216,405.833L245.999,421h59.999L336,401.25    L365.999,421H396c16.57,0,30-13.43,30-30V236C420.569,236,119.373,236,106,236z"/><path style="fill:#546C94;" d="M356,131v55h-40v-55C329.99,131,342.01,131,356,131z"/><path style="fill:#3A5085;" d="M126,121v40c0,11.05-8.95,20-20,20s-20-8.95-20-20v-40c0-11.05,8.95-20,20-20    C117.04,101,126,109.96,126,121z"/><path style="fill:#3A5085;" d="M126,321v30c0,11.05-8.95,20-20,20s-20-8.95-20-20v-30c0-11.05,8.95-20,20-20    C117.04,301,126,309.96,126,321z"/><path style="fill:#95C7EE;" d="M376,171v65h-80v-65C320.961,171,352.553,171,376,171z"/><polygon style="fill:#95C7EE;" points="256,171 256,236 176,236 176,171 196,171 196,121 236,121 236,171   "/><path style="fill:#95C7EE;" d="M256,316v20l-40,16l-40-16v-20c0-22.09,17.91-40,40-40C238.079,276,256,293.919,256,316z"/><path style="fill:#95C7EE;" d="M376,316v20l-37.5,16L296,336v-20c0-22.09,17.91-40,40-40C358.079,276,376,293.919,376,316z"/><polygon style="fill:#F2D137;" points="256,336 246,421 186,421 176,336   "/><polygon style="fill:#F2D137;" points="376,336 366,421 306,421 296,336   "/><path style="fill:#546C94;" d="M256,91v40c-24.962,0-56.553,0-80,0V91H256z"/><g><g><path d="M399.3,1H112.7C70.407,1,36,35.407,36,77.7v316.6c0,34.757,23.245,64.169,55,73.554v5.069      C91,493.919,108.082,511,129.078,511c17.504,0,32.695-11.86,36.94-28.843L168.808,471h174.385l2.789,11.158      C350.227,499.14,365.418,511,382.923,511C403.919,511,421,493.919,421,472.923v-5.069c31.755-9.385,55-38.798,55-73.554V77.7      C476,35.407,441.593,1,399.3,1z M146.616,477.307c-2.016,8.063-9.228,13.693-17.538,13.693h-0.001      c-9.968,0-18.077-8.109-18.077-18.077V471c10.633,0,25.695,0,37.192,0L146.616,477.307z M401,471v1.923      c0,9.968-8.109,18.077-18.077,18.077h-0.001c-8.311,0-15.522-5.631-17.538-13.692L363.808,471H399.3H401z M456,394.3      c0,31.265-25.436,56.7-56.7,56.7c-11.304,0-275.298,0-286.6,0C81.436,451,56,425.564,56,394.3V77.7      C56,46.436,81.436,21,112.7,21h286.6c31.265,0,56.7,25.436,56.7,56.7V394.3z"/><path d="M396,41H136c-22.056,0-40,17.944-40,40v11.72C84.361,96.848,76,107.964,76,121v40c0,13.036,8.361,24.152,20,28.28      v103.44c-11.639,4.128-20,15.243-20,28.28v30c0,13.036,8.361,24.152,20,28.28V391c0,22.056,17.944,40,40,40      c30.957,0,226.302,0,260,0c22.056,0,40-17.944,40-40V81C436,58.944,418.056,41,396,41z M136,61h260c11.028,0,20,8.972,20,20v145      h-30v-55c0-5.522-4.478-10-10-10h-10v-30c0-5.522-4.478-10-10-10h-10v-20h20c5.522,0,10-4.478,10-10s-4.478-10-10-10h-30      c-5.522,0-10,4.478-10,10v30h-10c-5.522,0-10,4.478-10,10v30h-10c-5.522,0-10,4.478-10,10v55h-20v-55c0-5.522-4.478-10-10-10      h-10v-20h10c5.522,0,10-4.478,10-10V91c0-5.522-4.478-10-10-10h-80c-5.522,0-10,4.478-10,10v40c0,5.522,4.478,10,10,10h10v20      h-10c-5.522,0-10,4.478-10,10v55h-50v-36.72c11.639-4.128,20-15.243,20-28.28v-40c0-13.036-8.361-24.152-20-28.28V81      C116,69.972,124.972,61,136,61z M346,141v20h-20v-20H346z M366,181v45h-60v-45C328.509,181,346.154,181,366,181z M186,121v-20      h60v20C223.491,121,205.846,121,186,121z M206,171v-30h20v30c0,5.522,4.478,10,10,10h10v45h-60v-45h10      C201.522,181,206,176.522,206,171z M96,121c0-5.514,4.486-10,10-10s10,4.486,10,10v40c0,5.514-4.486,10-10,10s-10-4.486-10-10      V121z M96,321c0-5.514,4.486-10,10-10s10,4.486,10,10v30c0,5.514-4.486,10-10,10s-10-4.486-10-10V321z M246,326h-60v-10      c0-16.542,13.458-30,30-30s30,13.458,30,30V326z M194.893,411l-7.647-65h57.51l-7.647,65H194.893z M366,326h-60v-10      c0-16.542,13.458-30,30-30s30,13.458,30,30V326z M314.893,411l-7.647-65h57.51l-7.647,65H314.893z M396,411h-18.754      c9.101-77.392,8.75-74.128,8.753-74.98C386,335.707,386.001,316.151,386,316c0-27.57-22.43-50-50-50s-50,22.43-50,50      c0,0.107,0.001,20.139,0.001,20.021c0.003,0.914,0.872,7.73,8.753,74.979h-37.509c3.3-28.161,8.75-73.993,8.753-74.98      C266,335.707,266.001,316.151,266,316c0-27.57-22.43-50-50-50s-50,22.43-50,50c0,0.107,0.001,20.139,0.001,20.021      c0.003,0.914,0.872,7.73,8.753,74.979H136c-11.028,0-20-8.972-20-20v-11.72c11.639-4.128,20-15.243,20-28.28v-30      c0-13.036-8.361-24.152-20-28.28V246c4.344,0,290.898,0,300,0v145C416,402.028,407.028,411,396,411z"/></g></g></g></g><g id="Layer_1"/></svg>